<svg width="7" height="12" viewBox="0 0 7 12" fill="none" xmlns="http://www.w3.org/2000/svg">
<path d="M1.7 11.3002L6.3 6.70023C6.4 6.60023 6.47066 6.4919 6.512 6.37523C6.55333 6.25856 6.57433 6.13356 6.575 6.00023C6.575 5.8669 6.554 5.7419 6.512 5.62523C6.47 5.50856 6.39933 5.40023 6.3 5.30023L1.7 0.700232C1.51666 0.516898 1.28333 0.425232 0.999997 0.425232C0.716664 0.425232 0.483331 0.516898 0.299997 0.700232C0.116664 0.883565 0.0249968 1.1169 0.0249968 1.40023C0.0249968 1.68357 0.116664 1.9169 0.299997 2.10023L4.2 6.00023L0.299997 9.90023C0.116664 10.0836 0.0249968 10.3169 0.0249968 10.6002C0.0249968 10.8836 0.116664 11.1169 0.299997 11.3002C0.483331 11.4836 0.716664 11.5752 0.999997 11.5752C1.28333 11.5752 1.51666 11.4836 1.7 11.3002Z" fill="white"/>
</svg>
