<svg width="25" height="25" viewBox="0 0 25 25" fill="none" xmlns="http://www.w3.org/2000/svg">
<path d="M25 7.82461C25 6.96172 24.3005 6.26211 23.4376 6.26211H20.7704C21.4606 5.58125 21.9024 4.6887 21.9024 3.58945C21.9024 2.23594 21.1251 0.765625 18.943 0.765625C16.0719 0.765625 13.6735 3.82266 12.5465 5.53633C11.4188 3.82305 8.94694 0.766016 6.07623 0.766016C3.8942 0.766016 3.11686 2.23633 3.11686 3.58984C3.11686 4.68867 3.57076 5.58164 4.27506 6.2625H1.56256C0.69967 6.2625 6.10352e-05 6.96211 6.10352e-05 7.825V12.502H1.57623V22.6719C1.57623 23.5348 2.27582 24.2344 3.13873 24.2344H21.8809C22.7438 24.2344 23.4434 23.5348 23.4434 22.6719V12.5016H25.0001V7.82461H25ZM18.943 2.32852C19.909 2.32852 20.3399 2.7344 20.3399 3.58987C20.3399 5.32542 18.4028 6.26172 16.5809 6.26172H13.936C15.0461 4.61289 17.0001 2.32852 18.943 2.32852ZM6.07621 2.32854C8.01957 2.32854 10.0473 4.61292 11.1574 6.26135H8.51173C6.68986 6.26135 4.67931 5.30081 4.67931 3.56526C4.67931 2.71018 5.11017 2.32854 6.07621 2.32854ZM23.4375 10.9391H13.2813V7.82461H23.4375V10.9391ZM1.56254 7.82461H11.7188V10.9391H1.56254V7.82461ZM3.13871 12.5016H11.7188V22.6715H3.13871V12.5016ZM21.8813 22.6715H13.2813V12.5016H21.8813V22.6715Z" fill="white"/>
</svg>
