<svg width="14" height="20" viewBox="0 0 14 20" fill="none" xmlns="http://www.w3.org/2000/svg">
<path d="M13.4284 7.14287C13.4284 10.7 6.99986 19.2857 6.99986 19.2857C6.99986 19.2857 0.571289 10.7 0.571289 7.14287C0.571289 5.4379 1.24858 3.80277 2.45417 2.59718C3.65976 1.39159 5.2949 0.714294 6.99986 0.714294C8.70482 0.714294 10.34 1.39159 11.5455 2.59718C12.7511 3.80277 13.4284 5.4379 13.4284 7.14287Z" stroke="white" stroke-linecap="round" stroke-linejoin="round"/>
<path d="M7.00028 9.28571C8.18375 9.28571 9.14314 8.32632 9.14314 7.14286C9.14314 5.95939 8.18375 5 7.00028 5C5.81681 5 4.85742 5.95939 4.85742 7.14286C4.85742 8.32632 5.81681 9.28571 7.00028 9.28571Z" stroke="white" stroke-linecap="round" stroke-linejoin="round"/>
</svg>
