<svg width="10" height="13" viewBox="0 0 10 13" fill="none" xmlns="http://www.w3.org/2000/svg">
<path d="M8.76855 12.125C8.76855 12.125 9.70605 12.125 9.70605 11.1875C9.70605 10.25 8.76855 7.4375 5.01855 7.4375C1.26855 7.4375 0.331055 10.25 0.331055 11.1875C0.331055 12.125 1.26855 12.125 1.26855 12.125H8.76855ZM1.28918 11.1875C1.28225 11.1865 1.27537 11.1853 1.26855 11.1838C1.26949 10.9363 1.42512 10.2181 1.98105 9.57125C2.49855 8.96469 3.40793 8.375 5.01855 8.375C6.62824 8.375 7.53762 8.96562 8.05606 9.57125C8.61199 10.2181 8.76668 10.9372 8.76855 11.1838L8.76105 11.1856C8.7567 11.1864 8.75232 11.187 8.74793 11.1875H1.28918ZM5.01855 5.5625C5.51584 5.5625 5.99275 5.36496 6.34438 5.01333C6.69601 4.66169 6.89355 4.18478 6.89355 3.6875C6.89355 3.19022 6.69601 2.71331 6.34438 2.36167C5.99275 2.01004 5.51584 1.8125 5.01855 1.8125C4.52127 1.8125 4.04436 2.01004 3.69273 2.36167C3.3411 2.71331 3.14355 3.19022 3.14355 3.6875C3.14355 4.18478 3.3411 4.66169 3.69273 5.01333C4.04436 5.36496 4.52127 5.5625 5.01855 5.5625ZM7.83105 3.6875C7.83105 4.05684 7.75831 4.42257 7.61697 4.7638C7.47562 5.10503 7.26846 5.41507 7.00729 5.67624C6.74613 5.9374 6.43608 6.14457 6.09485 6.28591C5.75362 6.42725 5.3879 6.5 5.01855 6.5C4.64921 6.5 4.28349 6.42725 3.94226 6.28591C3.60103 6.14457 3.29098 5.9374 3.02982 5.67624C2.76865 5.41507 2.56148 5.10503 2.42014 4.7638C2.2788 4.42257 2.20605 4.05684 2.20605 3.6875C2.20605 2.94158 2.50237 2.22621 3.02982 1.69876C3.55726 1.17132 4.27263 0.875 5.01855 0.875C5.76448 0.875 6.47985 1.17132 7.00729 1.69876C7.53474 2.22621 7.83105 2.94158 7.83105 3.6875Z" fill="white"/>
</svg>
