<svg width="25" height="21" viewBox="0 0 25 21" fill="none" xmlns="http://www.w3.org/2000/svg">
<path d="M2.18434 9.26233C8.7445 6.40483 13.1179 4.52081 15.3047 3.61061C21.5554 1.01151 22.8527 0.560104 23.7 0.544811C23.8863 0.541823 24.3011 0.587877 24.5718 0.806725C24.7968 0.991295 24.8601 1.2409 24.8918 1.41616C24.9199 1.59124 24.9586 1.99026 24.9269 2.30174C24.5894 5.85956 23.1234 14.4932 22.3781 18.4782C22.0652 20.1643 21.4429 20.7296 20.8418 20.7848C19.5339 20.905 18.5425 19.9214 17.2769 19.092C15.2976 17.7937 14.1797 16.9858 12.2566 15.7191C10.0347 14.2552 11.4761 13.4505 12.7418 12.1356C13.0722 11.7915 18.8308 6.55495 18.9398 6.07999C18.9539 6.02057 18.9679 5.79909 18.8343 5.68237C18.7043 5.5653 18.5109 5.60538 18.3703 5.63702C18.1699 5.68202 15.0093 7.77311 8.87809 11.9099C7.98161 12.5266 7.1695 12.8272 6.43825 12.8114C5.63668 12.7941 4.08981 12.3571 2.9402 11.9838C1.53395 11.5257 0.412466 11.2835 0.510903 10.5055C0.560122 10.1005 1.11911 9.68596 2.18434 9.26233Z" fill="white"/>
</svg>
