<svg width="23" height="14" viewBox="0 0 23 14" fill="none" xmlns="http://www.w3.org/2000/svg">
<path d="M21.399 13.1469H19.0229C18.124 13.1469 17.8531 12.4188 16.2417 10.8063C14.8333 9.44902 14.2385 9.28027 13.8823 9.28027C13.3896 9.28027 13.2552 9.41569 13.2552 10.0938V12.2313C13.2552 12.8094 13.0677 13.148 11.5573 13.148C10.092 13.0495 8.671 12.6044 7.41143 11.8492C6.15185 11.094 5.08971 10.0503 4.3125 8.80423C2.46707 6.50738 1.18303 3.81161 0.5625 0.931312C0.5625 0.575062 0.697917 0.252146 1.37708 0.252146H3.75208C4.3625 0.252146 4.58229 0.524021 4.82188 1.15215C5.975 4.5459 7.94271 7.49798 8.74167 7.49798C9.04792 7.49798 9.18125 7.36256 9.18125 6.59902V3.10319C9.08021 1.5084 8.23333 1.37402 8.23333 0.796938C8.24405 0.644689 8.31369 0.502613 8.42747 0.400889C8.54126 0.299164 8.69021 0.245805 8.84271 0.252146H12.576C13.0865 0.252146 13.2552 0.506312 13.2552 1.11673V5.83548C13.2552 6.34485 13.474 6.5136 13.6281 6.5136C13.9344 6.5136 14.1698 6.34485 14.7312 5.78444C15.9347 4.31671 16.918 2.68149 17.65 0.930271C17.7249 0.720014 17.8666 0.540036 18.0533 0.417789C18.2401 0.295541 18.4617 0.237735 18.6844 0.253187H21.0604C21.7729 0.253187 21.924 0.609438 21.7729 1.11777C20.9087 3.05362 19.8394 4.89121 18.5833 6.59902C18.3271 6.98965 18.225 7.19277 18.5833 7.6511C18.8187 8.00735 19.6521 8.70319 20.2115 9.36465C21.026 10.1771 21.7021 11.1167 22.2135 12.1459C22.4177 12.8084 22.0771 13.1469 21.399 13.1469Z" fill="white"/>
</svg>
