<svg width="19" height="19" viewBox="0 0 19 19" fill="none" xmlns="http://www.w3.org/2000/svg">
<path d="M15.8957 3.27996C15.0749 2.4508 14.0971 1.79338 13.0196 1.34605C11.942 0.898718 10.7861 0.670427 9.61934 0.674492C4.73073 0.674492 0.746433 4.65879 0.746433 9.5474C0.746433 11.1143 1.15829 12.6364 1.92829 13.9794L0.674805 18.5815L5.37539 17.3459C6.67364 18.0532 8.13306 18.4293 9.61934 18.4293C14.5079 18.4293 18.4922 14.445 18.4922 9.55635C18.4922 7.18368 17.57 4.95426 15.8957 3.27996ZM9.61934 16.9251C8.29422 16.9251 6.99597 16.5669 5.85887 15.8954L5.59027 15.7343L2.79678 16.4684L3.53992 13.7466L3.36085 13.469C2.62465 12.2934 2.23373 10.9345 2.23271 9.5474C2.23271 5.48251 5.5455 2.16972 9.61039 2.16972C11.5802 2.16972 13.4335 2.93972 14.8213 4.33647C15.5085 5.02048 16.053 5.83408 16.4234 6.73012C16.7938 7.62615 16.9827 8.58679 16.9791 9.55635C16.997 13.6212 13.6842 16.9251 9.61934 16.9251ZM13.6663 11.4097C13.4425 11.3023 12.3502 10.7651 12.1532 10.6845C11.9472 10.6129 11.804 10.5771 11.6518 10.7919C11.4996 11.0158 11.0788 11.5172 10.9534 11.6604C10.8281 11.8126 10.6938 11.8305 10.4699 11.7141C10.2461 11.6067 9.5298 11.365 8.68818 10.6129C8.02562 10.0219 7.5869 9.2967 7.4526 9.07286C7.32725 8.84903 7.43469 8.73263 7.55108 8.61624C7.64957 8.51775 7.77492 8.35658 7.88236 8.23124C7.9898 8.10589 8.03457 8.0074 8.1062 7.86414C8.17783 7.71193 8.14201 7.58659 8.08829 7.47914C8.03457 7.3717 7.5869 6.27938 7.40783 5.8317C7.22876 5.40193 7.04074 5.45565 6.90643 5.4467H6.47667C6.32446 5.4467 6.09166 5.50042 5.88573 5.72426C5.68876 5.9481 5.11574 6.48531 5.11574 7.57763C5.11574 8.66996 5.9126 9.72647 6.02004 9.86972C6.12748 10.0219 7.5869 12.2603 9.80736 13.2183C10.3356 13.4511 10.7475 13.5854 11.0698 13.6839C11.5981 13.854 12.0815 13.8272 12.4665 13.7734C12.8963 13.7108 13.7827 13.2362 13.9618 12.7169C14.1498 12.1976 14.1498 11.7589 14.0871 11.6604C14.0245 11.5619 13.8902 11.5172 13.6663 11.4097Z" fill="white"/>
</svg>
